<?xml version="1.0" standalone="no"?>
<!DOCTYPE svg PUBLIC "-//W3C//DTD SVG 20010904//EN"
 "http://www.w3.org/TR/2001/REC-SVG-20010904/DTD/svg10.dtd">
<svg version="1.0" xmlns="http://www.w3.org/2000/svg"
 width="260.000000pt" height="260.000000pt" viewBox="0 0 260.000000 260.000000"
 preserveAspectRatio="xMidYMid meet">
<metadata>
Created by potrace 1.11, written by Peter Selinger 2001-2013
</metadata>
<g transform="translate(0.000000,260.000000) scale(0.100000,-0.100000)"
fill="#000000" stroke="none">
<path d="M1154 2241 c-160 -46 -272 -168 -293 -322 -7 -56 1 -218 14 -279 3
-14 -1 -42 -9 -61 -13 -32 -13 -43 0 -100 28 -120 35 -141 58 -163 15 -14 28
-47 40 -106 10 -47 31 -113 47 -146 27 -58 29 -70 29 -182 0 -88 -4 -123 -13
-131 -24 -19 -98 -41 -222 -65 -235 -47 -381 -130 -445 -257 -17 -33 -20 -59
-20 -179 l0 -141 54 -24 c126 -56 114 -55 906 -55 792 0 780 -1 906 55 l54 24
0 141 c0 153 -7 179 -67 250 -67 80 -230 156 -393 185 -107 19 -184 41 -217
61 -22 14 -23 21 -23 136 0 110 2 126 26 174 25 52 63 182 64 217 0 10 10 28
23 40 12 12 16 16 8 9 -13 -10 -25 -2 -77 49 l-61 61 -53 -16 c-60 -18 -113
-9 -162 25 -33 24 -68 95 -68 139 0 45 35 115 70 140 38 27 97 38 144 28 107
-24 163 -133 121 -235 l-16 -37 58 -58 c32 -32 60 -58 64 -58 6 0 34 100 43
155 2 17 -2 45 -11 62 -13 27 -13 43 -4 98 13 75 16 235 5 280 -22 93 -97 192
-183 243 -103 60 -273 79 -397 43z"/>
<path d="M1380 1702 c-106 -53 -104 -193 3 -246 53 -25 101 -15 149 34 33 33
38 44 38 85 0 60 -24 100 -75 125 -51 25 -70 25 -115 2z m100 -123 l35 -6 -37
-2 c-36 -1 -38 -3 -40 -33 l-1 -33 -4 33 c-4 28 -8 32 -36 34 l-32 1 33 4 c29
4 32 7 33 41 l2 37 6 -35 c5 -30 11 -36 41 -41z"/>
</g>
</svg>
